<?xml version="1.0" encoding="UTF-8" standalone="no"?>
<!-- Created with Inkscape (http://www.inkscape.org/) -->

<svg
   width="64mm"
   height="64mm"
   viewBox="0 0 64 64"
   version="1.1"
   id="svg5"
   inkscape:version="1.1.1 (3bf5ae0d25, 2021-09-20)"
   sodipodi:docname="logo.svg"
   xmlns:inkscape="http://www.inkscape.org/namespaces/inkscape"
   xmlns:sodipodi="http://sodipodi.sourceforge.net/DTD/sodipodi-0.dtd"
   xmlns="http://www.w3.org/2000/svg"
   xmlns:svg="http://www.w3.org/2000/svg">
  <sodipodi:namedview
     id="namedview7"
     pagecolor="#ffffff"
     bordercolor="#999999"
     borderopacity="1"
     inkscape:pageshadow="0"
     inkscape:pageopacity="0"
     inkscape:pagecheckerboard="0"
     inkscape:document-units="mm"
     showgrid="false"
     inkscape:zoom="3.6233469"
     inkscape:cx="139.64989"
     inkscape:cy="35.878431"
     inkscape:window-width="3840"
     inkscape:window-height="2054"
     inkscape:window-x="-11"
     inkscape:window-y="-11"
     inkscape:window-maximized="1"
     inkscape:current-layer="layer1"
     inkscape:snap-global="false" />
  <defs
     id="defs2" />
  <g
     inkscape:label="Calque 1"
     inkscape:groupmode="layer"
     id="layer1">
    <g
       id="g1007">
      <path
         id="path1787"
         style="fill:#81d4fa;fill-opacity:1;stroke:none;stroke-width:0.359235px;stroke-linecap:butt;stroke-linejoin:miter;stroke-opacity:1"
         d="m 18.347765,3.6360585 c 0,0 2.428829,1.126853 2.618914,8.5553725 0.190074,7.42852 -11.1928433,16.965589 -8.024035,25.93119 3.168807,8.965603 12.630613,11.554254 16.494216,11.554254 3.863603,0 2.307616,0 5.126285,0 2.818658,0 13.325398,-2.588651 16.494214,-11.554254 C 54.226164,29.15702 42.843252,19.619951 43.033326,12.191431 43.2234,4.7629115 45.652229,3.6360585 45.652229,3.6360585 H 32.000003 Z"
         sodipodi:nodetypes="czzzzczccc" />
      <rect
         style="fill:#0288d1;fill-opacity:1;stroke:none;stroke-width:1.04575;stroke-linejoin:round;stroke-miterlimit:1.414"
         id="rect846"
         width="62.115963"
         height="12.069926"
         x="0.94201928"
         y="48.294018"
         ry="6.0349631" />
      <path
         id="rect2853"
         style="fill:#ffffff;fill-opacity:1;stroke:none;stroke-width:2.83909;stroke-linejoin:round;stroke-miterlimit:1.414"
         d="m 117.67773,68.888672 c -4.21647,0 -7.61132,3.394853 -7.61132,7.611328 0,4.216475 3.39485,7.611328 7.61132,7.611328 h 40.63477 v 2.53711 h -50.49023 c -3.83808,0 -6.92774,3.089661 -6.92774,6.927734 0,3.838073 3.08966,6.927738 6.92774,6.927738 h 50.49023 l 0,2.62839 h -39.95312 c -3.72996,0 -6.73243,3.00246 -6.73243,6.73242 0,3.72996 3.00248,6.72598 6.73243,6.73242 h 39.95312 l 0,2.34817 h -30.09766 c -3.02721,0 -5.46289,2.73061 -5.46289,5.75781 0,3.02722 2.43568,6.04883 5.46289,6.04883 h 62.83985 c 0.88648,0 1.7201,-0.21239 2.45898,-0.58398 h 1.53516 C 194.34498,109.26664 178.2044,88.076823 168.9707,68.888672 Z"
         transform="scale(0.26458333)"
         sodipodi:nodetypes="sssccsssccsssccsssscccs" />
    </g>
  </g>
</svg>
